<svg xmlns="http://www.w3.org/2000/svg" width="920" height="420" viewBox="0 0 920 420" role="img" aria-labelledby="title desc">
<title id="title">实验证据链</title>
<desc id="desc">实验证据链 的结构示意图。</desc>
<rect width="920" height="420" fill="#f8fafc"/>
<text x="40" y="42" font-size="24" font-family="Arial, sans-serif" fill="#0f172a">实验证据链</text>
<defs><marker id="arrow" markerWidth="10" markerHeight="10" refX="8" refY="3" orient="auto" markerUnits="strokeWidth"><path d="M0,0 L0,6 L9,3 z" fill="#475569"/></marker></defs>
<line x1="200" y1="185.0" x2="240" y2="185.0" stroke="#475569" stroke-width="2" marker-end="url(#arrow)"/>
<line x1="390" y1="185.0" x2="430" y2="185.0" stroke="#475569" stroke-width="2" marker-end="url(#arrow)"/>
<line x1="580" y1="185.0" x2="620" y2="185.0" stroke="#475569" stroke-width="2" marker-end="url(#arrow)"/>
<line x1="770" y1="185.0" x2="380" y2="315.0" stroke="#475569" stroke-width="2" marker-end="url(#arrow)"/>
<rect x="50" y="150" width="150" height="70" rx="14" fill="#e2e8f0" stroke="#334155" stroke-width="1.5"/>
<text x="125.0" y="175.0" text-anchor="middle" font-size="16" font-family="Arial, sans-serif" fill="#0f172a">environment</text>
<text x="125.0" y="197.0" text-anchor="middle" font-size="16" font-family="Arial, sans-serif" fill="#0f172a">versions</text>
<rect x="240" y="150" width="150" height="70" rx="14" fill="#dbeafe" stroke="#334155" stroke-width="1.5"/>
<text x="315.0" y="175.0" text-anchor="middle" font-size="16" font-family="Arial, sans-serif" fill="#0f172a">history.csv</text>
<text x="315.0" y="197.0" text-anchor="middle" font-size="16" font-family="Arial, sans-serif" fill="#0f172a">process</text>
<rect x="430" y="150" width="150" height="70" rx="14" fill="#dcfce7" stroke="#334155" stroke-width="1.5"/>
<text x="505.0" y="175.0" text-anchor="middle" font-size="16" font-family="Arial, sans-serif" fill="#0f172a">metrics.json</text>
<text x="505.0" y="197.0" text-anchor="middle" font-size="16" font-family="Arial, sans-serif" fill="#0f172a">result</text>
<rect x="620" y="150" width="150" height="70" rx="14" fill="#ede9fe" stroke="#334155" stroke-width="1.5"/>
<text x="695.0" y="175.0" text-anchor="middle" font-size="16" font-family="Arial, sans-serif" fill="#0f172a">checkpoint.pt</text>
<text x="695.0" y="197.0" text-anchor="middle" font-size="16" font-family="Arial, sans-serif" fill="#0f172a">state</text>
<rect x="380" y="280" width="170" height="70" rx="14" fill="#ffedd5" stroke="#334155" stroke-width="1.5"/>
<text x="465.0" y="305.0" text-anchor="middle" font-size="16" font-family="Arial, sans-serif" fill="#0f172a">reload check</text>
<text x="465.0" y="327.0" text-anchor="middle" font-size="16" font-family="Arial, sans-serif" fill="#0f172a">accuracy</text>
</svg>