<svg xmlns="http://www.w3.org/2000/svg" width="920" height="420" viewBox="0 0 920 420" role="img" aria-labelledby="title desc">
<title id="title">PyTorch 项目结构</title>
<desc id="desc">PyTorch 项目结构 的结构示意图。</desc>
<rect width="920" height="420" fill="#f8fafc"/>
<text x="40" y="42" font-size="24" font-family="Arial, sans-serif" fill="#0f172a">PyTorch 项目结构</text>
<defs><marker id="arrow" markerWidth="10" markerHeight="10" refX="8" refY="3" orient="auto" markerUnits="strokeWidth"><path d="M0,0 L0,6 L9,3 z" fill="#475569"/></marker></defs>
<line x1="200" y1="145.0" x2="450" y2="145.0" stroke="#475569" stroke-width="2" marker-end="url(#arrow)"/>
<line x1="400" y1="145.0" x2="450" y2="145.0" stroke="#475569" stroke-width="2" marker-end="url(#arrow)"/>
<line x1="600" y1="145.0" x2="650" y2="145.0" stroke="#475569" stroke-width="2" marker-end="url(#arrow)"/>
<line x1="600" y1="145.0" x2="480" y2="290.0" stroke="#475569" stroke-width="2" marker-end="url(#arrow)"/>
<line x1="390" y1="290.0" x2="450" y2="145.0" stroke="#475569" stroke-width="2" marker-end="url(#arrow)"/>
<rect x="50" y="110" width="150" height="70" rx="14" fill="#dbeafe" stroke="#334155" stroke-width="1.5"/>
<text x="125.0" y="135.0" text-anchor="middle" font-size="16" font-family="Arial, sans-serif" fill="#0f172a">data.py</text>
<text x="125.0" y="157.0" text-anchor="middle" font-size="16" font-family="Arial, sans-serif" fill="#0f172a">DatasetBundle</text>
<rect x="250" y="110" width="150" height="70" rx="14" fill="#dcfce7" stroke="#334155" stroke-width="1.5"/>
<text x="325.0" y="135.0" text-anchor="middle" font-size="16" font-family="Arial, sans-serif" fill="#0f172a">models.py</text>
<text x="325.0" y="157.0" text-anchor="middle" font-size="16" font-family="Arial, sans-serif" fill="#0f172a">nn.Module</text>
<rect x="450" y="110" width="150" height="70" rx="14" fill="#ffedd5" stroke="#334155" stroke-width="1.5"/>
<text x="525.0" y="135.0" text-anchor="middle" font-size="16" font-family="Arial, sans-serif" fill="#0f172a">train.py</text>
<text x="525.0" y="157.0" text-anchor="middle" font-size="16" font-family="Arial, sans-serif" fill="#0f172a">loop+metrics</text>
<rect x="650" y="110" width="140" height="70" rx="14" fill="#ede9fe" stroke="#334155" stroke-width="1.5"/>
<text x="720.0" y="135.0" text-anchor="middle" font-size="16" font-family="Arial, sans-serif" fill="#0f172a">cli.py</text>
<text x="720.0" y="157.0" text-anchor="middle" font-size="16" font-family="Arial, sans-serif" fill="#0f172a">commands</text>
<rect x="250" y="260" width="140" height="60" rx="14" fill="#e2e8f0" stroke="#334155" stroke-width="1.5"/>
<text x="320.0" y="280.0" text-anchor="middle" font-size="16" font-family="Arial, sans-serif" fill="#0f172a">tests</text>
<text x="320.0" y="302.0" text-anchor="middle" font-size="16" font-family="Arial, sans-serif" fill="#0f172a">behavior</text>
<rect x="480" y="260" width="150" height="60" rx="14" fill="#fee2e2" stroke="#334155" stroke-width="1.5"/>
<text x="555.0" y="280.0" text-anchor="middle" font-size="16" font-family="Arial, sans-serif" fill="#0f172a">reports</text>
<text x="555.0" y="302.0" text-anchor="middle" font-size="16" font-family="Arial, sans-serif" fill="#0f172a">evidence</text>
</svg>