<svg xmlns="http://www.w3.org/2000/svg" width="920" height="420" viewBox="0 0 920 420" role="img" aria-labelledby="title desc">
<title id="title">数据划分和指标解释</title>
<desc id="desc">数据划分和指标解释 的结构示意图。</desc>
<rect width="920" height="420" fill="#f8fafc"/>
<text x="40" y="42" font-size="24" font-family="Arial, sans-serif" fill="#0f172a">数据划分和指标解释</text>
<defs><marker id="arrow" markerWidth="10" markerHeight="10" refX="8" refY="3" orient="auto" markerUnits="strokeWidth"><path d="M0,0 L0,6 L9,3 z" fill="#475569"/></marker></defs>
<line x1="210" y1="185.0" x2="250" y2="185.0" stroke="#475569" stroke-width="2" marker-end="url(#arrow)"/>
<line x1="380" y1="185.0" x2="430" y2="120.0" stroke="#475569" stroke-width="2" marker-end="url(#arrow)"/>
<line x1="380" y1="185.0" x2="430" y2="210.0" stroke="#475569" stroke-width="2" marker-end="url(#arrow)"/>
<line x1="380" y1="185.0" x2="430" y2="300.0" stroke="#475569" stroke-width="2" marker-end="url(#arrow)"/>
<line x1="550" y1="300.0" x2="640" y2="215.0" stroke="#475569" stroke-width="2" marker-end="url(#arrow)"/>
<rect x="60" y="150" width="150" height="70" rx="14" fill="#dbeafe" stroke="#334155" stroke-width="1.5"/>
<text x="135.0" y="175.0" text-anchor="middle" font-size="16" font-family="Arial, sans-serif" fill="#0f172a">seeded data</text>
<text x="135.0" y="197.0" text-anchor="middle" font-size="16" font-family="Arial, sans-serif" fill="#0f172a">XOR clusters</text>
<rect x="250" y="150" width="130" height="70" rx="14" fill="#e2e8f0" stroke="#334155" stroke-width="1.5"/>
<text x="315.0" y="175.0" text-anchor="middle" font-size="16" font-family="Arial, sans-serif" fill="#0f172a">shuffle</text>
<text x="315.0" y="197.0" text-anchor="middle" font-size="16" font-family="Arial, sans-serif" fill="#0f172a">fixed seed</text>
<rect x="430" y="90" width="120" height="60" rx="14" fill="#dcfce7" stroke="#334155" stroke-width="1.5"/>
<text x="490.0" y="110.0" text-anchor="middle" font-size="16" font-family="Arial, sans-serif" fill="#0f172a">train</text>
<text x="490.0" y="132.0" text-anchor="middle" font-size="16" font-family="Arial, sans-serif" fill="#0f172a">60%</text>
<rect x="430" y="180" width="120" height="60" rx="14" fill="#ffedd5" stroke="#334155" stroke-width="1.5"/>
<text x="490.0" y="200.0" text-anchor="middle" font-size="16" font-family="Arial, sans-serif" fill="#0f172a">validation</text>
<text x="490.0" y="222.0" text-anchor="middle" font-size="16" font-family="Arial, sans-serif" fill="#0f172a">20%</text>
<rect x="430" y="270" width="120" height="60" rx="14" fill="#ede9fe" stroke="#334155" stroke-width="1.5"/>
<text x="490.0" y="290.0" text-anchor="middle" font-size="16" font-family="Arial, sans-serif" fill="#0f172a">test</text>
<text x="490.0" y="312.0" text-anchor="middle" font-size="16" font-family="Arial, sans-serif" fill="#0f172a">20%</text>
<rect x="640" y="180" width="170" height="70" rx="14" fill="#fee2e2" stroke="#334155" stroke-width="1.5"/>
<text x="725.0" y="205.0" text-anchor="middle" font-size="16" font-family="Arial, sans-serif" fill="#0f172a">metrics</text>
<text x="725.0" y="227.0" text-anchor="middle" font-size="16" font-family="Arial, sans-serif" fill="#0f172a">accuracy + rate</text>
</svg>