<svg xmlns="http://www.w3.org/2000/svg" width="920" height="420" viewBox="0 0 920 420" role="img" aria-labelledby="title desc">
<title id="title">Baseline 对照关系</title>
<desc id="desc">Baseline 对照关系 的结构示意图。</desc>
<rect width="920" height="420" fill="#f8fafc"/>
<text x="40" y="42" font-size="24" font-family="Arial, sans-serif" fill="#0f172a">Baseline 对照关系</text>
<defs><marker id="arrow" markerWidth="10" markerHeight="10" refX="8" refY="3" orient="auto" markerUnits="strokeWidth"><path d="M0,0 L0,6 L9,3 z" fill="#475569"/></marker></defs>
<line x1="230" y1="165.0" x2="320" y2="305.0" stroke="#475569" stroke-width="2" marker-end="url(#arrow)"/>
<line x1="440" y1="165.0" x2="320" y2="305.0" stroke="#475569" stroke-width="2" marker-end="url(#arrow)"/>
<line x1="650" y1="165.0" x2="320" y2="305.0" stroke="#475569" stroke-width="2" marker-end="url(#arrow)"/>
<rect x="90" y="130" width="140" height="70" rx="14" fill="#e2e8f0" stroke="#334155" stroke-width="1.5"/>
<text x="160.0" y="155.0" text-anchor="middle" font-size="16" font-family="Arial, sans-serif" fill="#0f172a">majority</text>
<text x="160.0" y="177.0" text-anchor="middle" font-size="16" font-family="Arial, sans-serif" fill="#0f172a">57.3%</text>
<rect x="300" y="130" width="140" height="70" rx="14" fill="#dcfce7" stroke="#334155" stroke-width="1.5"/>
<text x="370.0" y="155.0" text-anchor="middle" font-size="16" font-family="Arial, sans-serif" fill="#0f172a">linear</text>
<text x="370.0" y="177.0" text-anchor="middle" font-size="16" font-family="Arial, sans-serif" fill="#0f172a">49.0%</text>
<rect x="510" y="130" width="140" height="70" rx="14" fill="#ede9fe" stroke="#334155" stroke-width="1.5"/>
<text x="580.0" y="155.0" text-anchor="middle" font-size="16" font-family="Arial, sans-serif" fill="#0f172a">MLP</text>
<text x="580.0" y="177.0" text-anchor="middle" font-size="16" font-family="Arial, sans-serif" fill="#0f172a">99.0%</text>
<rect x="320" y="270" width="180" height="70" rx="14" fill="#ffedd5" stroke="#334155" stroke-width="1.5"/>
<text x="410.0" y="295.0" text-anchor="middle" font-size="16" font-family="Arial, sans-serif" fill="#0f172a">same split</text>
<text x="410.0" y="317.0" text-anchor="middle" font-size="16" font-family="Arial, sans-serif" fill="#0f172a">same test</text>
</svg>