<svg xmlns="http://www.w3.org/2000/svg" width="980" height="190" viewBox="0 0 980 190" role="img" aria-labelledby="title desc">
<title id="title">service 层不变量</title>
<desc id="desc">输入命令 -&gt; 校验归一化 -&gt; Map&lt;Long,TaskItem&gt; -&gt; 持久化 -&gt; summary/CSV</desc>
<defs><marker id="arrow" markerWidth="10" markerHeight="10" refX="8" refY="3" orient="auto" markerUnits="strokeWidth"><path d="M0,0 L0,6 L9,3 z" fill="#334155"/></marker></defs>
<rect width="980" height="190" fill="#f8fafc"/>
<text x="35" y="38" font-family="Arial, Microsoft YaHei, sans-serif" font-size="24" font-weight="700" fill="#0f172a">service 层不变量</text>
<rect x="35" y="88" width="150" height="54" rx="12" fill="#eef2ff" stroke="#4f46e5" stroke-width="2"/>
<text x="110.0" y="122" text-anchor="middle" font-family="Arial, Microsoft YaHei, sans-serif" font-size="15" fill="#111827">输入命令</text>
<line x1="193" y1="115.0" x2="212" y2="115.0" stroke="#334155" stroke-width="2" marker-end="url(#arrow)"/>
<rect x="220" y="88" width="150" height="54" rx="12" fill="#eef2ff" stroke="#4f46e5" stroke-width="2"/>
<text x="295.0" y="122" text-anchor="middle" font-family="Arial, Microsoft YaHei, sans-serif" font-size="15" fill="#111827">校验归一化</text>
<line x1="378" y1="115.0" x2="397" y2="115.0" stroke="#334155" stroke-width="2" marker-end="url(#arrow)"/>
<rect x="405" y="88" width="150" height="54" rx="12" fill="#eef2ff" stroke="#4f46e5" stroke-width="2"/>
<text x="480.0" y="122" text-anchor="middle" font-family="Arial, Microsoft YaHei, sans-serif" font-size="15" fill="#111827">Map&lt;Long,TaskItem&gt;</text>
<line x1="563" y1="115.0" x2="582" y2="115.0" stroke="#334155" stroke-width="2" marker-end="url(#arrow)"/>
<rect x="590" y="88" width="150" height="54" rx="12" fill="#eef2ff" stroke="#4f46e5" stroke-width="2"/>
<text x="665.0" y="122" text-anchor="middle" font-family="Arial, Microsoft YaHei, sans-serif" font-size="15" fill="#111827">持久化</text>
<line x1="748" y1="115.0" x2="767" y2="115.0" stroke="#334155" stroke-width="2" marker-end="url(#arrow)"/>
<rect x="775" y="88" width="150" height="54" rx="12" fill="#eef2ff" stroke="#4f46e5" stroke-width="2"/>
<text x="850.0" y="122" text-anchor="middle" font-family="Arial, Microsoft YaHei, sans-serif" font-size="15" fill="#111827">summary/CSV</text>
</svg>
