<svg xmlns="http://www.w3.org/2000/svg" width="980" height="190" viewBox="0 0 980 190" role="img" aria-labelledby="title desc">
<title id="title">Java 领域模型分层</title>
<desc id="desc">请求数据 -&gt; record -&gt; enum 状态 -&gt; service 校验 -&gt; 领域异常</desc>
<defs><marker id="arrow" markerWidth="10" markerHeight="10" refX="8" refY="3" orient="auto" markerUnits="strokeWidth"><path d="M0,0 L0,6 L9,3 z" fill="#334155"/></marker></defs>
<rect width="980" height="190" fill="#f8fafc"/>
<text x="35" y="38" font-family="Arial, Microsoft YaHei, sans-serif" font-size="24" font-weight="700" fill="#0f172a">Java 领域模型分层</text>
<rect x="35" y="88" width="150" height="54" rx="12" fill="#eef2ff" stroke="#4f46e5" stroke-width="2"/>
<text x="110.0" y="122" text-anchor="middle" font-family="Arial, Microsoft YaHei, sans-serif" font-size="15" fill="#111827">请求数据</text>
<line x1="193" y1="115.0" x2="212" y2="115.0" stroke="#334155" stroke-width="2" marker-end="url(#arrow)"/>
<rect x="220" y="88" width="150" height="54" rx="12" fill="#eef2ff" stroke="#4f46e5" stroke-width="2"/>
<text x="295.0" y="122" text-anchor="middle" font-family="Arial, Microsoft YaHei, sans-serif" font-size="15" fill="#111827">record</text>
<line x1="378" y1="115.0" x2="397" y2="115.0" stroke="#334155" stroke-width="2" marker-end="url(#arrow)"/>
<rect x="405" y="88" width="150" height="54" rx="12" fill="#eef2ff" stroke="#4f46e5" stroke-width="2"/>
<text x="480.0" y="122" text-anchor="middle" font-family="Arial, Microsoft YaHei, sans-serif" font-size="15" fill="#111827">enum 状态</text>
<line x1="563" y1="115.0" x2="582" y2="115.0" stroke="#334155" stroke-width="2" marker-end="url(#arrow)"/>
<rect x="590" y="88" width="150" height="54" rx="12" fill="#eef2ff" stroke="#4f46e5" stroke-width="2"/>
<text x="665.0" y="122" text-anchor="middle" font-family="Arial, Microsoft YaHei, sans-serif" font-size="15" fill="#111827">service 校验</text>
<line x1="748" y1="115.0" x2="767" y2="115.0" stroke="#334155" stroke-width="2" marker-end="url(#arrow)"/>
<rect x="775" y="88" width="150" height="54" rx="12" fill="#eef2ff" stroke="#4f46e5" stroke-width="2"/>
<text x="850.0" y="122" text-anchor="middle" font-family="Arial, Microsoft YaHei, sans-serif" font-size="15" fill="#111827">领域异常</text>
</svg>
