<svg xmlns="http://www.w3.org/2000/svg" width="940" height="430" viewBox="0 0 940 430" role="img" aria-labelledby="title desc">
<title id="title">本地服务映射范围</title>
<desc id="desc">本地服务映射范围 的结构示意图。</desc>
<rect width="940" height="430" fill="#f8fafc"/>
<text x="40" y="44" font-size="24" font-family="Arial, sans-serif" fill="#0f172a">本地服务映射范围</text>
<defs><marker id="arrow" markerWidth="10" markerHeight="10" refX="8" refY="3" orient="auto" markerUnits="strokeWidth"><path d="M0,0 L0,6 L9,3 z" fill="#475569"/></marker></defs>
<line x1="220" y1="185.0" x2="270" y2="185.0" stroke="#475569" stroke-width="2" marker-end="url(#arrow)"/>
<line x1="440" y1="185.0" x2="500" y2="185.0" stroke="#475569" stroke-width="2" marker-end="url(#arrow)"/>
<line x1="660" y1="185.0" x2="710" y2="185.0" stroke="#475569" stroke-width="2" marker-end="url(#arrow)"/>
<rect x="70" y="150" width="150" height="70" rx="14" fill="#e2e8f0" stroke="#334155" stroke-width="1.5"/>
<text x="145.0" y="175.0" text-anchor="middle" font-size="16" font-family="Arial, sans-serif" fill="#0f172a">input</text>
<text x="145.0" y="197.0" text-anchor="middle" font-size="16" font-family="Arial, sans-serif" fill="#0f172a">host+ports</text>
<rect x="270" y="150" width="170" height="70" rx="14" fill="#dbeafe" stroke="#334155" stroke-width="1.5"/>
<text x="355.0" y="175.0" text-anchor="middle" font-size="16" font-family="Arial, sans-serif" fill="#0f172a">scope check</text>
<text x="355.0" y="197.0" text-anchor="middle" font-size="16" font-family="Arial, sans-serif" fill="#0f172a">loopback only</text>
<rect x="500" y="150" width="160" height="70" rx="14" fill="#ffedd5" stroke="#334155" stroke-width="1.5"/>
<text x="580.0" y="175.0" text-anchor="middle" font-size="16" font-family="Arial, sans-serif" fill="#0f172a">socket connect</text>
<text x="580.0" y="197.0" text-anchor="middle" font-size="16" font-family="Arial, sans-serif" fill="#0f172a">small range</text>
<rect x="710" y="150" width="150" height="70" rx="14" fill="#dcfce7" stroke="#334155" stroke-width="1.5"/>
<text x="785.0" y="175.0" text-anchor="middle" font-size="16" font-family="Arial, sans-serif" fill="#0f172a">JSON report</text>
<text x="785.0" y="197.0" text-anchor="middle" font-size="16" font-family="Arial, sans-serif" fill="#0f172a">open_ports</text>
</svg>