<svg xmlns="http://www.w3.org/2000/svg" width="920" height="260" viewBox="0 0 920 260" role="img" aria-label="TLS 本地信任链">
  <rect width="920" height="260" fill="#f8fafc"/>
  <defs><marker id="a" markerWidth="10" markerHeight="8" refX="9" refY="4" orient="auto"><path d="M0,0 L10,4 L0,8 Z" fill="#4f46e5"/></marker></defs>
  <rect x="50" y="70" width="190" height="95" rx="14" fill="#e0e7ff" stroke="#4f46e5"/><text x="145" y="103" text-anchor="middle" font-size="18" font-family="sans-serif" fill="#312e81">curl 客户端</text><text x="145" y="130" text-anchor="middle" font-size="12" font-family="sans-serif" fill="#312e81">验证链 + 名称 + 有效期</text>
  <rect x="320" y="38" width="210" height="75" rx="14" fill="#fef3c7" stroke="#d97706"/><text x="425" y="70" text-anchor="middle" font-size="17" font-family="sans-serif" fill="#78350f">本地 CA</text><text x="425" y="92" text-anchor="middle" font-size="12" font-family="sans-serif" fill="#78350f">ca.crt / ca.key</text>
  <rect x="320" y="150" width="210" height="75" rx="14" fill="#dcfce7" stroke="#16a34a"/><text x="425" y="182" text-anchor="middle" font-size="17" font-family="sans-serif" fill="#14532d">服务端证书</text><text x="425" y="204" text-anchor="middle" font-size="12" font-family="sans-serif" fill="#14532d">SAN: localhost, 127.0.0.1</text>
  <rect x="620" y="70" width="230" height="95" rx="14" fill="#fee2e2" stroke="#dc2626"/><text x="735" y="103" text-anchor="middle" font-size="18" font-family="sans-serif" fill="#7f1d1d">HTTPS 服务</text><text x="735" y="130" text-anchor="middle" font-size="12" font-family="sans-serif" fill="#7f1d1d">127.0.0.1:18184</text>
  <line x1="530" y1="75" x2="620" y2="103" stroke="#d97706" stroke-width="3" marker-end="url(#a)"/><text x="566" y="64" font-size="12" font-family="sans-serif" fill="#475569">签发</text>
  <line x1="240" y1="116" x2="320" y2="78" stroke="#4f46e5" stroke-width="3" marker-end="url(#a)"/><text x="250" y="83" font-size="12" font-family="sans-serif" fill="#475569">--cacert</text>
  <line x1="240" y1="124" x2="620" y2="124" stroke="#4f46e5" stroke-width="3" marker-end="url(#a)"/><text x="382" y="136" font-size="12" font-family="sans-serif" fill="#475569">TLS 握手 + 证书验证</text>
  <line x1="530" y1="188" x2="620" y2="137" stroke="#16a34a" stroke-width="3" marker-end="url(#a)"/>
</svg>
