<svg xmlns="http://www.w3.org/2000/svg" width="980" height="190" viewBox="0 0 980 190" role="img" aria-labelledby="title desc">
<title id="title">FastAPI 服务边界</title>
<desc id="desc">HTTP 请求 -&gt; FastAPI 路由 -&gt; 路径边界 -&gt; build_manifest -&gt; JSON 响应</desc>
<rect width="980" height="190" fill="#f8fafc"/>
<defs><marker id="python-fastapi-service-arrow" markerWidth="10" markerHeight="10" refX="8" refY="3" orient="auto" markerUnits="strokeWidth"><path d="M0,0 L0,6 L9,3 z" fill="#334155"/></marker></defs>
<text x="35" y="38" font-family="Arial, Microsoft YaHei, sans-serif" font-size="24" font-weight="700" fill="#0f172a">FastAPI 服务边界</text>
<rect x="35" y="88" width="150" height="54" rx="12" fill="#e0f2fe" stroke="#0284c7" stroke-width="2"/>
<text x="110.0" y="122" text-anchor="middle" font-family="Arial, Microsoft YaHei, sans-serif" font-size="15" fill="#0f172a">HTTP 请求</text>
<line x1="193" y1="115.0" x2="212" y2="115.0" stroke="#334155" stroke-width="2" marker-end="url(#python-fastapi-service-arrow)"/>
<rect x="220" y="88" width="150" height="54" rx="12" fill="#e0f2fe" stroke="#0284c7" stroke-width="2"/>
<text x="295.0" y="122" text-anchor="middle" font-family="Arial, Microsoft YaHei, sans-serif" font-size="15" fill="#0f172a">FastAPI 路由</text>
<line x1="378" y1="115.0" x2="397" y2="115.0" stroke="#334155" stroke-width="2" marker-end="url(#python-fastapi-service-arrow)"/>
<rect x="405" y="88" width="150" height="54" rx="12" fill="#e0f2fe" stroke="#0284c7" stroke-width="2"/>
<text x="480.0" y="122" text-anchor="middle" font-family="Arial, Microsoft YaHei, sans-serif" font-size="15" fill="#0f172a">路径边界</text>
<line x1="563" y1="115.0" x2="582" y2="115.0" stroke="#334155" stroke-width="2" marker-end="url(#python-fastapi-service-arrow)"/>
<rect x="590" y="88" width="150" height="54" rx="12" fill="#e0f2fe" stroke="#0284c7" stroke-width="2"/>
<text x="665.0" y="122" text-anchor="middle" font-family="Arial, Microsoft YaHei, sans-serif" font-size="15" fill="#0f172a">build_manifest</text>
<line x1="748" y1="115.0" x2="767" y2="115.0" stroke="#334155" stroke-width="2" marker-end="url(#python-fastapi-service-arrow)"/>
<rect x="775" y="88" width="150" height="54" rx="12" fill="#e0f2fe" stroke="#0284c7" stroke-width="2"/>
<text x="850.0" y="122" text-anchor="middle" font-family="Arial, Microsoft YaHei, sans-serif" font-size="15" fill="#0f172a">JSON 响应</text>
</svg>
