<svg xmlns="http://www.w3.org/2000/svg" width="980" height="190" viewBox="0 0 980 190" role="img" aria-labelledby="title desc">
<title id="title">从文件到领域对象</title>
<desc id="desc">文件路径 -&gt; FileEntry -&gt; Manifest -&gt; summary -&gt; dict/JSON</desc>
<rect width="980" height="190" fill="#f8fafc"/>
<defs><marker id="python-core-syntax-data-model-arrow" markerWidth="10" markerHeight="10" refX="8" refY="3" orient="auto" markerUnits="strokeWidth"><path d="M0,0 L0,6 L9,3 z" fill="#334155"/></marker></defs>
<text x="35" y="38" font-family="Arial, Microsoft YaHei, sans-serif" font-size="24" font-weight="700" fill="#0f172a">从文件到领域对象</text>
<rect x="35" y="88" width="150" height="54" rx="12" fill="#e0f2fe" stroke="#0284c7" stroke-width="2"/>
<text x="110.0" y="122" text-anchor="middle" font-family="Arial, Microsoft YaHei, sans-serif" font-size="15" fill="#0f172a">文件路径</text>
<line x1="193" y1="115.0" x2="212" y2="115.0" stroke="#334155" stroke-width="2" marker-end="url(#python-core-syntax-data-model-arrow)"/>
<rect x="220" y="88" width="150" height="54" rx="12" fill="#e0f2fe" stroke="#0284c7" stroke-width="2"/>
<text x="295.0" y="122" text-anchor="middle" font-family="Arial, Microsoft YaHei, sans-serif" font-size="15" fill="#0f172a">FileEntry</text>
<line x1="378" y1="115.0" x2="397" y2="115.0" stroke="#334155" stroke-width="2" marker-end="url(#python-core-syntax-data-model-arrow)"/>
<rect x="405" y="88" width="150" height="54" rx="12" fill="#e0f2fe" stroke="#0284c7" stroke-width="2"/>
<text x="480.0" y="122" text-anchor="middle" font-family="Arial, Microsoft YaHei, sans-serif" font-size="15" fill="#0f172a">Manifest</text>
<line x1="563" y1="115.0" x2="582" y2="115.0" stroke="#334155" stroke-width="2" marker-end="url(#python-core-syntax-data-model-arrow)"/>
<rect x="590" y="88" width="150" height="54" rx="12" fill="#e0f2fe" stroke="#0284c7" stroke-width="2"/>
<text x="665.0" y="122" text-anchor="middle" font-family="Arial, Microsoft YaHei, sans-serif" font-size="15" fill="#0f172a">summary</text>
<line x1="748" y1="115.0" x2="767" y2="115.0" stroke="#334155" stroke-width="2" marker-end="url(#python-core-syntax-data-model-arrow)"/>
<rect x="775" y="88" width="150" height="54" rx="12" fill="#e0f2fe" stroke="#0284c7" stroke-width="2"/>
<text x="850.0" y="122" text-anchor="middle" font-family="Arial, Microsoft YaHei, sans-serif" font-size="15" fill="#0f172a">dict/JSON</text>
</svg>
